<?xml version="1.0" encoding="utf-8"?>
<svg viewBox="21.752 125.29 139.646 149.217" xmlns="http://www.w3.org/2000/svg">
  <defs>
    <clipPath id="a">
      <path d="M 26.4375 116.015625 L 164.4375 116.015625 L 164.4375 259.265625 L 26.4375 259.265625 Z M 26.4375 116.015625"/>
    </clipPath>
  </defs>
  <g clip-path="url(#a)">
    <path d="M 152.217 193.777 L 152.217 181.108 L 90.653 138.645 L 29.09 181.108 L 29.09 254.72 L 151.829 255.778 L 152.217 205.113 L 66.223 205.018 L 66.223 224.17 L 129.759 224.17 L 129.759 235.049 L 52.978 235.049 L 52.978 193.777 L 152.217 193.777 Z M 92.27 162.669 L 100.936 162.669 L 100.936 170.558 L 92.27 170.558 L 92.27 162.669 Z M 92.27 173.505 L 100.936 173.505 L 100.936 181.39 L 92.27 181.39 L 92.27 173.505 Z M 80.371 162.669 L 89.034 162.669 L 89.034 170.558 L 80.371 170.558 L 80.371 162.669 Z M 80.371 173.505 L 89.034 173.505 L 89.034 181.39 L 80.371 181.39 L 80.371 173.505 Z M 80.371 173.505" style="fill: rgb(60, 110, 185);"/>
  </g>
</svg>